<svg width="180" height="31" viewBox="0 0 180 31" fill="none" xmlns="http://www.w3.org/2000/svg">
<g clip-path="url(#clip0_93_1644)">
<path fill-rule="evenodd" clip-rule="evenodd" d="M158.691 13.809L162.253 10.4048L158.704 7.01318L151.596 13.809H158.691Z" fill="url(#paint0_linear_93_1644)"/>
<path fill-rule="evenodd" clip-rule="evenodd" d="M151.981 5.4414V0.646729H174.988L179.997 5.4414H151.981Z" fill="url(#paint1_linear_93_1644)"/>
<path fill-rule="evenodd" clip-rule="evenodd" d="M174.983 27.339H179.997V5.49007L174.983 0.644287V27.339Z" fill="url(#paint2_linear_93_1644)"/>
<path fill-rule="evenodd" clip-rule="evenodd" d="M179.997 27.3384L169.818 17.6064L166.269 20.996L172.905 27.3384H179.997Z" fill="url(#paint3_linear_93_1644)"/>
<path fill-rule="evenodd" clip-rule="evenodd" d="M159.636 27.3384L169.815 17.6064L173.364 20.996L166.729 27.3384H159.636Z" fill="url(#paint4_linear_93_1644)"/>
<path fill-rule="evenodd" clip-rule="evenodd" d="M151.981 0.585693L162.253 10.4034L158.704 13.7955L151.981 7.36726V0.585693Z" fill="url(#paint5_linear_93_1644)"/>
<path d="M5.75373 14.81H11.1642V27.3686H13.6225L13.377 25.7407V13.071H3.24522L3.56472 15.0699L3.4327 17.3742C3.35876 18.833 3.27162 20.0974 3.16864 21.16C3.09709 22.0429 2.96567 22.9206 2.7752 23.7873C2.67782 24.3391 2.45126 24.8628 2.11243 25.3193C1.97939 25.4824 1.80791 25.6131 1.61197 25.7008C1.41603 25.7885 1.20117 25.8308 0.98492 25.824C0.815323 25.8247 0.645896 25.8137 0.477937 25.7912C0.316046 25.7724 0.156147 25.7403 0 25.6953L0.221805 27.4999C0.415122 27.5456 0.610782 27.5819 0.808004 27.6084C1.0127 27.6361 1.21915 27.6505 1.42589 27.6513C2.07299 27.6717 2.71013 27.4949 3.24522 27.1465C3.75778 26.7805 4.1596 26.291 4.40969 25.7281C4.73087 25.0251 4.9597 24.2867 5.09095 23.5299C5.25869 22.5923 5.37591 21.6471 5.44214 20.6981C5.51608 19.6608 5.58209 18.5528 5.63226 17.3767L5.75373 14.81Z" fill="#1D1D1B"/>
<path d="M26.326 18.7146V27.4345H28.214L28.0265 26.1852V16.4634H26.3841L20.1921 24.3327L19.6824 25.1833V16.4634H17.739L17.9846 17.9979V27.4345H19.627L25.8164 19.5652L26.326 18.7146Z" fill="#1D1D1B"/>
<path d="M30.572 30.1148H32.291L32.3095 27.4471H40.3684L40.4001 30.1148H42.1191L42.0795 26.1146H40.6641V16.4634H33.0066L33.2522 17.9979L33.2337 19.0983C33.2337 20.0397 33.2073 20.9154 33.136 21.7306C33.0706 22.506 32.931 23.2739 32.7188 24.0248C32.5071 24.752 32.1982 25.4501 31.7999 26.1019H30.6116L30.572 30.1148ZM34.9315 19.1109V17.796H38.9531V26.1019H33.6879C34.0318 25.4398 34.2975 24.7432 34.48 24.0248C34.6688 23.2709 34.7942 22.5037 34.855 21.7306C34.9051 20.9154 34.9368 20.0397 34.9315 19.0983V19.1109Z" fill="#1D1D1B"/>
<path d="M45.2746 27.4345H51.3162L51.6911 26.2004H46.9751V22.4323H50.5399L50.9174 21.1981H46.9751V17.6975H51.4852V16.4634H45.0291L45.2746 17.9979V27.4345Z" fill="#1D1D1B"/>
<path d="M54.7673 16.4634L55.0129 17.9979V27.4345H56.9009L56.7134 26.1852V23.3333H57.6376C58.2783 23.3393 58.9155 23.2429 59.5229 23.0481C60.0652 22.876 60.5706 22.6118 61.0148 22.2682C61.4222 21.9582 61.7576 21.5706 61.9998 21.13C62.232 20.7098 62.3543 20.2422 62.3562 19.7671C62.3625 19.26 62.2441 18.7585 62.0103 18.3033C61.7947 17.8954 61.4817 17.5418 61.0967 17.271C60.7033 16.9962 60.2615 16.7911 59.7923 16.6653C59.3003 16.5309 58.7909 16.4638 58.2792 16.4659L54.7673 16.4634ZM56.7134 22.0991V17.6975H57.9386C58.2769 17.6956 58.6137 17.7389 58.9394 17.8263C59.2405 17.9082 59.5239 18.0407 59.7764 18.2175C60.0164 18.3883 60.2124 18.6093 60.3494 18.8636C60.4942 19.1435 60.5675 19.4523 60.5633 19.7646C60.5664 20.0986 60.4935 20.4293 60.3494 20.7337C60.2152 21.0147 60.0199 21.2651 59.7764 21.4682C59.5318 21.6743 59.2475 21.8329 58.9394 21.9351C58.6184 22.0452 58.2797 22.1007 57.9386 22.0991H56.7134Z" fill="#1D1D1B"/>
<path d="M81.5423 13.071H68.1389L68.4584 15.0699V27.3686H70.9194L70.6738 25.7407V14.81H79.3295V27.3686H81.7878L81.5423 25.7407V13.071Z" fill="#1D1D1B"/>
<path d="M90.4885 16.2613C89.8667 16.2614 89.2492 16.3603 88.6613 16.554C88.0981 16.7439 87.5711 17.0201 87.1007 17.3718C86.6323 17.7258 86.2243 18.1472 85.8914 18.6211C85.544 19.1094 85.2769 19.6456 85.0992 20.2111C84.9158 20.8042 84.8242 21.4198 84.8272 22.0384C84.8253 22.6343 84.9034 23.2281 85.0596 23.805C85.2059 24.3464 85.4346 24.8642 85.7382 25.3421C86.0342 25.8032 86.4091 26.2136 86.8472 26.556C87.2963 26.904 87.8057 27.1739 88.3523 27.3536C88.9616 27.5482 89.6006 27.6445 90.243 27.6388C90.8673 27.6405 91.4876 27.5424 92.0781 27.3485C92.6433 27.1583 93.1722 26.8812 93.644 26.5283C94.118 26.1713 94.5306 25.7455 94.8665 25.2663C95.2126 24.7755 95.4796 24.2378 95.6587 23.6713C95.8469 23.0728 95.9421 22.4512 95.9412 21.8263C95.9491 21.0728 95.8342 20.3226 95.6006 19.6028C95.3895 18.9535 95.0418 18.3523 94.5787 17.8362C94.1134 17.3269 93.5315 16.927 92.8782 16.6676C92.1182 16.3758 91.3049 16.2317 90.4859 16.2436L90.4885 16.2613ZM86.6756 21.9475C86.673 21.3552 86.762 20.7659 86.9397 20.1985C87.1006 19.6784 87.3582 19.1902 87.7001 18.7574C88.0145 18.3575 88.4153 18.0269 88.8752 17.7882C89.3454 17.5577 89.8663 17.4374 90.3948 17.4374C90.9233 17.4374 91.4442 17.5577 91.9144 17.7882C92.3715 18.0278 92.7694 18.3583 93.0815 18.7574C93.4159 19.1891 93.6688 19.6734 93.8288 20.1884C94.1808 21.331 94.1808 22.5463 93.8288 23.6889C93.6688 24.2039 93.4159 24.6882 93.0815 25.12C92.7694 25.519 92.3715 25.8495 91.9144 26.0891C91.4442 26.3197 90.9233 26.4399 90.3948 26.4399C89.8663 26.4399 89.3454 26.3197 88.8752 26.0891C88.4153 25.8504 88.0145 25.5199 87.7001 25.12C87.3612 24.6898 87.1054 24.2052 86.9449 23.6889C86.7662 23.1243 86.6754 22.5375 86.6756 21.9475Z" fill="#1D1D1B"/>
<path d="M107.19 18.7146V27.4345H109.075L108.888 26.1852V16.4634H107.245L101.056 24.3327L100.546 25.1833V16.4634H98.6028L98.8484 17.9979V27.4345H100.488L106.68 19.5652L107.19 18.7146Z" fill="#1D1D1B"/>
<path d="M121.581 17.6293C121.044 17.1888 120.43 16.8427 119.767 16.6071C118.459 16.1667 117.037 16.1463 115.716 16.5491C114.528 16.9197 113.495 17.6462 112.772 18.6211C112.4 19.1195 112.112 19.6705 111.919 20.2541C111.715 20.8781 111.613 21.5284 111.615 22.1823C111.609 22.8414 111.716 23.4971 111.932 24.1231C112.31 25.2073 113.065 26.1353 114.071 26.753C114.557 27.0494 115.085 27.2765 115.64 27.4268C116.2 27.5765 116.779 27.652 117.361 27.6514C117.845 27.6504 118.328 27.6005 118.8 27.5025C119.214 27.4154 119.619 27.2938 120.01 27.1391C120.328 27.0164 120.638 26.8739 120.937 26.7126C121.201 26.5687 121.393 26.4602 121.531 26.3517C121.668 26.2431 121.739 26.2028 121.739 26.2002L121.325 24.9661L121.108 25.1125C120.966 25.2058 120.773 25.3219 120.527 25.4582C120.282 25.5945 119.999 25.7358 119.696 25.8772C119.374 26.0157 119.042 26.1313 118.703 26.2229C117.951 26.4308 117.151 26.4131 116.411 26.1725C115.564 25.9075 114.825 25.3955 114.298 24.7086C114.016 24.341 113.797 23.933 113.649 23.4997C113.488 23.02 113.408 22.5192 113.411 22.0157C113.41 21.5566 113.476 21.0997 113.606 20.6579C113.728 20.2239 113.913 19.8085 114.156 19.4237C114.391 19.0477 114.684 18.7074 115.024 18.4142C115.367 18.1285 115.759 17.9029 116.184 17.7479C116.617 17.5817 117.079 17.496 117.546 17.4955C118.137 17.4916 118.723 17.6032 119.268 17.8236C119.805 18.0481 120.294 18.3646 120.712 18.7574L121.581 17.6293Z" fill="#1D1D1B"/>
<path d="M126.524 21.1475V16.4633H124.58L124.826 17.9978V27.4344H126.714L126.524 26.1851V22.4826H127.865L131.356 27.4344H133.508L129.354 21.7659L131.166 18.8963C131.323 18.6446 131.507 18.4095 131.715 18.1946C131.86 18.0394 132.033 17.9096 132.225 17.811C132.369 17.7372 132.531 17.6982 132.695 17.6974C132.814 17.6974 132.924 17.6974 133.035 17.6974C133.131 17.7035 133.225 17.717 133.318 17.7378L133.149 16.3522C133.047 16.3204 132.941 16.2976 132.835 16.2841C132.689 16.2619 132.541 16.251 132.394 16.2513C132.088 16.2493 131.785 16.3051 131.501 16.4153C131.153 16.5565 130.837 16.7604 130.569 17.016C130.206 17.3729 129.897 17.7764 129.65 18.2148L127.878 21.1475H126.524Z" fill="#1D1D1B"/>
<path d="M134.873 27.4343H136.516L137.741 24.5622H142.365L143.553 27.4292H145.612L144.667 25.5944L140.817 16.2461L139.666 16.4631L134.873 27.4343ZM139.911 19.4817L140.139 18.8128L140.326 19.464L141.892 23.3002H138.251L139.911 19.4817Z" fill="#1D1D1B"/>
</g>
<defs>
<linearGradient id="paint0_linear_93_1644" x1="163.301" y1="8.7216" x2="149.978" y2="14.0746" gradientUnits="userSpaceOnUse">
<stop stop-color="#445DA7"/>
<stop offset="1" stop-color="#49B1E5"/>
</linearGradient>
<linearGradient id="paint1_linear_93_1644" x1="19395.9" y1="47.3468" x2="16131" y2="47.3468" gradientUnits="userSpaceOnUse">
<stop stop-color="#445DA7"/>
<stop offset="1" stop-color="#49B1E5"/>
</linearGradient>
<linearGradient id="paint2_linear_93_1644" x1="3545.54" y1="2971.76" x2="3545.54" y2="-134.965" gradientUnits="userSpaceOnUse">
<stop stop-color="#445DA7"/>
<stop offset="1" stop-color="#49B1E5"/>
</linearGradient>
<linearGradient id="paint3_linear_93_1644" x1="169.219" y1="19.3757" x2="176.262" y2="28.8083" gradientUnits="userSpaceOnUse">
<stop offset="0.01" stop-color="#445DA7"/>
<stop offset="1" stop-color="#49B1E5"/>
</linearGradient>
<linearGradient id="paint4_linear_93_1644" x1="8815.9" y1="1139.8" x2="8815.9" y2="583.227" gradientUnits="userSpaceOnUse">
<stop stop-color="#445DA7"/>
<stop offset="1" stop-color="#49B1E5"/>
</linearGradient>
<linearGradient id="paint5_linear_93_1644" x1="6085.21" y1="-106.149" x2="6516.16" y2="683.182" gradientUnits="userSpaceOnUse">
<stop stop-color="#445DA7"/>
<stop offset="1" stop-color="#49B1E5"/>
</linearGradient>
<clipPath id="clip0_93_1644">
<rect width="180" height="29.5164" fill="white" transform="translate(0 0.585693)"/>
</clipPath>
</defs>
</svg>
